<?xml version="1.0" encoding="UTF-8" standalone="no"?>
<svg
   width="1"
   height="1"
   version="1.1"
   viewBox="0 0 1 1"
   id="svg12"
   sodipodi:docname="arrow.svg"
   inkscape:version="1.1.2 (0a00cf5339, 2022-02-04)"
   xmlns:inkscape="http://www.inkscape.org/namespaces/inkscape"
   xmlns:sodipodi="http://sodipodi.sourceforge.net/DTD/sodipodi-0.dtd"
   xmlns="http://www.w3.org/2000/svg"
   xmlns:svg="http://www.w3.org/2000/svg">
  <defs
     id="defs16">
    <inkscape:path-effect
       effect="fill_between_many"
       method="originald"
       linkedpaths="#path2,0,1"
       id="path-effect1265"
       is_visible="true"
       lpeversion="0"
       join="true"
       close="true"
       autoreverse="true"
       applied="false" />
  </defs>
  <sodipodi:namedview
     id="namedview14"
     pagecolor="#ffffff"
     bordercolor="#666666"
     borderopacity="1.0"
     inkscape:pageshadow="2"
     inkscape:pageopacity="0.0"
     inkscape:pagecheckerboard="0"
     showgrid="false"
     inkscape:zoom="256"
     inkscape:cx="-0.5234375"
     inkscape:cy="-0.51171875"
     inkscape:window-width="3840"
     inkscape:window-height="2127"
     inkscape:window-x="0"
     inkscape:window-y="0"
     inkscape:window-maximized="1"
     inkscape:current-layer="svg12" />
  <path
     style="color:#000000;fill:#847e87;stroke-width:5.24971;-inkscape-stroke:none;paint-order:fill markers stroke"
     d="m -0.2538534,-0.41893404 c 0.0163271,0.0219118 0.0861384,0.10938866 0.0988354,0.13261477 l -0.00757,0.56279369 c 0,0 -0.0691824,0.0888912 -0.0852798,0.11557582 L -0.25085025,0.92499223 0.00797151,0.66208889 0.27937323,0.9349381 0.26693541,0.37966514 c 0,0 -0.067297,-0.0766012 -0.0833944,-0.10328581 l -0.003042,-0.57444666 0.0951061,-0.11001486 -0.27858505,-0.79543151 z"
     id="path2"
     sodipodi:nodetypes="ccccccccccccc" />
  <g
     id="g10"
     transform="matrix(0.01934098,0,0,0.01934098,0.01730801,0.03199856)"
     style="stroke-width:123.091;stroke-miterlimit:4;stroke-dasharray:none" />
  <path
     d="m -0.06305339,-0.3578892 c 0,0.2710553 0,0.5421106 0,0.813166 0.02203,0.01807 0.04406,0.036141 0.06609,0.054211 0.02203,-0.01807 0.04406,-0.036141 0.06609,-0.054211 0,-0.2710554 0,-0.5421107 0,-0.813166 -0.04406,0 -0.08812,0 -0.132174,0 z"
     fill="#d9a066"
     id="path6"
     style="stroke-width:2.55509;stroke-miterlimit:4;stroke-dasharray:none" />
  <path
     d="m 0.00303261,-0.9 c -0.03672,0.1626305 -0.07343,0.3252609 -0.110145,0.4878914 0.03672,0.045176 0.07343,0.090352 0.110145,0.1355277 0.03672,-0.045176 0.07343,-0.090352 0.110145,-0.1355277 -0.03671,-0.1626305 -0.07343,-0.3252609 -0.110145,-0.4878914 z"
     fill="#9badb7"
     id="path8"
     style="stroke-width:2.55509;stroke-miterlimit:4;stroke-dasharray:none" />
  <path
     d="m -0.06305339,0.3197491 c -0.02135,0.028408 -0.04809,0.054906 -0.06609,0.084505 0,0.089289 0,0.178578 0,0.267867 0.04406,-0.045176 0.08812,-0.090352 0.132175,-0.1355277 0.04406,0.045176 0.08812,0.090352 0.132175,0.1355277 0,-0.090352 0,-0.1807036 0,-0.2710554 -0.02203,-0.027106 -0.04406,-0.054211 -0.06609,-0.081317 -0.04406,0 -0.08812,0 -0.132176,4e-7 z"
     fill="#fbf236"
     id="path4"
     style="stroke-width:2.55509;stroke-miterlimit:4;stroke-dasharray:none" />
</svg>
